<svg xmlns="http://www.w3.org/2000/svg" width="332" height="136" viewBox="0 0 332 136">
    <path fill="#1E4384" d="M331.232 82.797c0 6.699-5.434 12.133-12.133 12.133H12.898c-6.7 0-12.131-5.434-12.131-12.133V13.088C.767 6.386 6.198.955 12.898.955H319.1c6.699 0 12.133 5.431 12.133 12.133v69.709z" />
    <path fill="#FFF" d="M77.208 45.874c-1.92-1.919-4.197-3.404-6.834-4.453-2.639-1.045-5.516-1.572-8.632-1.572h-6.924c-2.518 0-4.542-.719-6.07-2.159-1.526-1.438-2.291-3.237-2.291-5.396 0-1.976.747-3.67 2.247-5.081 1.498-1.405 3.536-2.111 6.114-2.111h23.919v-12.23H55.448c-3.237 0-6.204.494-8.902 1.483-2.697.991-5.006 2.357-6.922 4.093a18.22 18.22 0 0 0-4.452 6.113c-1.049 2.338-1.574 4.888-1.574 7.643 0 2.817.509 5.38 1.528 7.689a18.547 18.547 0 0 0 4.229 6.024c1.797 1.709 3.925 3.028 6.385 3.956 2.455.93 5.123 1.395 8.001 1.395h5.572c1.859 0 3.601.241 5.216.719 1.62.481 2.998 1.155 4.139 2.022a9.833 9.833 0 0 1 2.696 3.104c.659 1.2.99 2.518.99 3.954 0 2.879-1.229 5.217-3.687 7.018-2.459 1.795-5.574 2.696-9.354 2.696H34.768l11.12 12.229h13.425c3.601 0 6.864-.539 9.803-1.617 2.937-1.078 5.469-2.578 7.599-4.498a19.479 19.479 0 0 0 4.899-6.832c1.139-2.639 1.708-5.545 1.708-8.723 0-3.115-.539-5.992-1.617-8.633-1.079-2.635-2.579-4.912-4.497-6.833zM190.65 31.668c2.07-2.037 4.525-3.642 7.373-4.813 2.848-1.166 5.949-1.752 9.309-1.752h10.248l-10.248-12.23c-5.277 0-10.088.841-14.434 2.516-4.348 1.682-8.063 4.036-11.15 7.061-3.086 3.026-5.482 6.64-7.191 10.835-1.709 4.197-2.563 8.843-2.563 13.936 0 5.037.869 9.744 2.605 14.118 1.738 4.378 4.152 8.168 7.242 11.374 3.082 3.209 6.801 5.729 11.148 7.555 4.344 1.828 9.125 2.742 14.342 2.742h10.248V70.781h-10.248c-3.418 0-6.564-.555-9.441-1.662-2.877-1.11-5.336-2.668-7.375-4.674-2.037-2.012-3.629-4.395-4.768-7.15-1.137-2.755-1.707-5.784-1.707-9.083 0-3.296.586-6.369 1.754-9.219 1.171-2.842 2.788-5.29 4.856-7.325zM293.32 12.874h-34.261l12.109 12.141h15.002V51.36c0 3.656-.27 6.729-.807 9.216-.541 2.49-1.41 4.482-2.609 5.98-1.199 1.5-2.73 2.577-4.584 3.237-1.859.66-4.08.988-6.656.988h-2.338c-2.637 0-4.869-.314-6.701-.941a9.455 9.455 0 0 1-4.496-3.239c-1.166-1.529-2.02-3.518-2.561-5.98-.537-2.457-.811-5.543-.811-9.261V12.874H242.38V51.36c0 10.249 2.32 18.089 6.969 23.511 4.643 5.428 11.254 8.139 19.826 8.139h2.338c8.51 0 15.121-2.727 19.828-8.184 4.705-5.453 7.059-13.274 7.059-23.466V12.874h-5.08zM149.034 25.015l-12.109-12.141H106.243v70.138h12.143v-.002h30.648V70.869h-30.648V54.014h30.648V41.872h-30.648V25.015z" />
    <path d="M49.849 130.797H37.494l-.141-21.105c0-.592-.349-.943-.943-.943h-2.755c-.586 0-.941.352-.941.941l-.139 24.41c0 .592.353.945.943.945h16.33c.594 0 .945-.354.945-.945v-2.365c.001-.589-.351-.938-.944-.938zM99.099 108.748H83.292c-.59 0-.938.352-.938.941L82.21 134.1c0 .592.354.945.945.945h15.943c.59 0 .943-.354.943-.945v-2.365c0-.588-.354-.938-.943-.938h-11.97l-.031-7.322h12.001c.588 0 .943-.354.943-.943v-2.367c0-.588-.355-.938-.943-.938H87.061L87.029 113h12.069c.59 0 .943-.354.943-.943v-2.365c.001-.592-.353-.944-.942-.944zM150.021 108.748h-18.904c-.592 0-.945.352-.945.943v2.365c0 .59.354.943.945.943h7.129l-.137 21.1c0 .592.352.945.946.945h3.03c.59 0 .943-.354.943-.945L142.89 113h7.131c.592 0 .945-.354.945-.943v-2.365c0-.592-.354-.944-.945-.944zM199.463 108.748h-18.906c-.59 0-.943.352-.943.943v2.365c0 .59.354.943.943.943h7.131l-.137 21.1c0 .592.354.945.943.945h3.037c.588 0 .941-.354.941-.945L192.33 113h7.133c.592 0 .941-.354.941-.943v-2.365c0-.592-.349-.944-.941-.944zM247.422 108.748h-15.805c-.584 0-.939.352-.939.941l-.143 24.41c0 .592.352.945.941.945h15.945c.59 0 .945-.354.945-.945v-2.365c0-.588-.355-.938-.945-.938h-11.967l-.031-7.322h11.998c.59 0 .945-.354.945-.943v-2.367c0-.588-.355-.938-.945-.938h-12.037L235.35 113h12.072c.59 0 .945-.354.945-.943v-2.365c0-.592-.355-.944-.945-.944zM278.445 120.076l-.08 14.023c0 .592.352.945.945.945h3.068c.59 0 .943-.354.943-.945l-.072-9.779h3.834l6.738 10.16c.252.379.607.564 1.078.564h3.672c.508 0 .705-.236.781-.375.127-.246.08-.545-.125-.846l-6.994-9.832c3.877-.908 6.365-3.855 6.365-7.6 0-4.5-3.682-7.645-8.955-7.645h-10.195c-.588 0-.943.352-.943.941l-.018 3.279m4.697-.073h5.969c3.008 0 4.807 1.426 4.807 3.816 0 2.303-1.619 3.469-4.807 3.469h-5.902" />
</svg>
